<?xml version="1.0" encoding="UTF-8"?>
<svg version="1.1" xmlns="http://www.w3.org/2000/svg" width="304" height="310">
<path d="M0 0 C100.32 0 200.64 0 304 0 C304 102.3 304 204.6 304 310 C203.68 310 103.36 310 0 310 C0 207.7 0 105.4 0 0 Z " fill="#FDFDFD" transform="translate(0,0)"/>
<path d="M0 0 C1.20398438 0.37898438 2.40796875 0.75796875 3.6484375 1.1484375 C10.60882927 3.43938406 17.36814127 5.85859323 24 9 C24 9.66 24 10.32 24 11 C24.70125 11.185625 25.4025 11.37125 26.125 11.5625 C30.53128888 13.76564444 33.79500745 17.59001489 36 22 C36.09336896 23.78655467 36.12191406 25.57663904 36.12025452 27.3656311 C36.12231651 29.07362129 36.12231651 29.07362129 36.12442017 30.81611633 C36.12082489 32.07127548 36.11722961 33.32643463 36.11352539 34.61962891 C36.11367142 35.93665298 36.11381744 37.25367706 36.1139679 38.61061096 C36.11425551 42.22815931 36.10836458 45.84567469 36.10139394 49.46321535 C36.09515442 53.24153763 36.09455613 57.01986062 36.09336853 60.79818726 C36.09025698 67.95569495 36.08204596 75.11318743 36.07201904 82.27068841 C36.06085243 90.41809884 36.05534607 98.56550998 36.05032361 106.71292615 C36.03986321 123.47529302 36.02226718 140.23764457 36 157 C35.6920752 156.37818848 35.38415039 155.75637695 35.06689453 155.11572266 C34.07471631 153.14816741 33.00090441 151.26818741 31.875 149.375 C30 146 30 146 30 144 C29.01 143.67 28.02 143.34 27 143 C26.4225 142.236875 25.845 141.47375 25.25 140.6875 C22.64462495 137.25952971 22.64462495 137.25952971 16 134 C16 106.94 16 79.88 16 52 C6.47643649 54.9264709 6.47643649 54.9264709 -3 58 C-5.33212027 58.07522969 -7.6685311 58.09325876 -10 58 C-10 58.66 -10 59.32 -10 60 C-20.395 60.495 -20.395 60.495 -31 61 C-31 92.35 -31 123.7 -31 156 C-35 154 -35 154 -36 151 C-36.99 151 -37.98 151 -39 151 C-41.28635781 170.40090185 -41.28635781 170.40090185 -34.375 188.125 C-27.42476962 196.5572648 -20.31597796 201.36933432 -10 205 C-10 205.33 -10 205.66 -10 206 C-15.28 206.33 -20.56 206.66 -26 207 C-26 207.66 -26 208.32 -26 209 C-32.09740047 209.0501209 -38.19467624 209.08605399 -44.29223633 209.10986328 C-46.35866388 209.11980805 -48.42507779 209.13336863 -50.49145508 209.15087891 C-63.15833682 209.25538606 -75.46206885 208.87873045 -88 207 C-88 206.34 -88 205.68 -88 205 C-88.845625 204.86722656 -89.69125 204.73445312 -90.5625 204.59765625 C-105.00953244 202.08584266 -118.95731569 197.70491425 -128.765625 186.15234375 C-132.9867853 178.79202942 -132.29068577 170.6976899 -132.2746582 162.47094727 C-132.27900991 160.99522647 -132.28419459 159.51950793 -132.29014587 158.04379272 C-132.30349714 154.04997019 -132.30411892 150.0562425 -132.30158257 146.06240201 C-132.30051032 142.72251598 -132.30540267 139.38264894 -132.310188 136.04276699 C-132.32126959 128.16090237 -132.32172805 120.27908543 -132.31567383 112.3972168 C-132.30963317 104.27820616 -132.32195043 96.15936878 -132.3432439 88.04038769 C-132.36088112 81.05757787 -132.36685795 74.0748231 -132.36360615 67.09199184 C-132.36179668 62.92676925 -132.36439592 58.7616703 -132.37832069 54.59646797 C-132.39092918 50.67869609 -132.38892658 46.76119367 -132.37590981 42.84342575 C-132.37355111 41.40999064 -132.37625329 39.97653638 -132.38453293 38.54312325 C-132.47165506 22.28099796 -132.47165506 22.28099796 -127.08984375 15.64453125 C-115.21489659 5.5368176 -101.27726083 1.10087463 -86.125 -1.6875 C-84.50271484 -2.00557617 -84.50271484 -2.00557617 -82.84765625 -2.33007812 C-57.15328889 -7.18413918 -25.07008391 -8.22372398 0 0 Z " fill="#FEB902" transform="translate(166,16)"/>
<path d="M0 0 C0 0.66 0 1.32 0 2 C0.54785156 2.00257812 1.09570312 2.00515625 1.66015625 2.0078125 C13.30251053 2.57573222 23.95341079 7.22323734 32.55859375 14.97265625 C34 17 34 17 34.46484375 19.5078125 C33.85609156 22.77154275 32.67062812 23.73341939 30.125 25.8125 C29.40570313 26.41707031 28.68640625 27.02164063 27.9453125 27.64453125 C26 29 26 29 24 29 C24 29.66 24 30.32 24 31 C21.03 31.66 18.06 32.32 15 33 C15 33.66 15 34.32 15 35 C10.71055561 35.98907311 6.41809988 36.96442705 2.125 37.9375 C0.92101562 38.21529297 -0.28296875 38.49308594 -1.5234375 38.77929688 C-14.09698502 41.61517852 -26.09851432 42.20582299 -38.9375 42.1875 C-39.71557007 42.18689575 -40.49364014 42.1862915 -41.29528809 42.18566895 C-58.49243389 42.14937871 -74.48321044 41.08588737 -91 36 C-91 35.34 -91 34.68 -91 34 C-91.99 33.9175 -92.98 33.835 -94 33.75 C-101.08565991 32.71727224 -106.26554017 29.29145511 -111 24 C-111.66 23.34 -112.32 22.68 -113 22 C-113.4375 19.6875 -113.4375 19.6875 -113 17 C-108.44931692 11.51241158 -102.9000345 7.800009 -96 6 C-94.68 6 -93.36 6 -92 6 C-92 5.34 -92 4.68 -92 4 C-63.76626911 -5.9251682 -29.31734804 -3.54594274 0 0 Z " fill="#D2D1CF" transform="translate(158,25)"/>
<path d="M0 0 C5.36817167 2.03620305 9.03140467 5.95932045 12.54296875 10.3515625 C14.84517064 12.95619842 17.48334121 15.14446192 20.1328125 17.38671875 C23.52517135 20.31777358 23.52517135 20.31777358 25 22 C24.875 24.125 24.875 24.125 24 26 C23.01 26.33 22.02 26.66 21 27 C20.67 27.99 20.34 28.98 20 30 C18.48193359 31.49243164 18.48193359 31.49243164 16.5234375 33.09765625 C10.71753384 38.02140453 5.49181619 43.49499986 0.18359375 48.94335938 C-0.58597656 49.72388672 -1.35554687 50.50441406 -2.1484375 51.30859375 C-2.84114746 52.01814209 -3.53385742 52.72769043 -4.24755859 53.45874023 C-6 55 -6 55 -8 55 C-8.66 56.32 -9.32 57.64 -10 59 C-10.66 59 -11.32 59 -12 59 C-12.33 59.99 -12.66 60.98 -13 62 C-14.8125 64.625 -14.8125 64.625 -18 67 C-21.99648236 67.72332168 -25.94361349 67.92883532 -30 68 C-30 68.66 -30 69.32 -30 70 C-31.31200404 71.35432675 -32.64631404 72.68733482 -34 74 C-34.33 74.66 -34.66 75.32 -35 76 C-35.66 76 -36.32 76 -37 76 C-36.99097656 76.65226562 -36.98195313 77.30453125 -36.97265625 77.9765625 C-37.2122742 85.04008288 -37.2122742 85.04008288 -39.5546875 87.89453125 C-41.4375 89.4375 -41.4375 89.4375 -43.30859375 90.74609375 C-45.28808582 92.06589335 -45.28808582 92.06589335 -47 95 C-47.66 95 -48.32 95 -49 95 C-50.5078125 93.46875 -50.5078125 93.46875 -52.125 91.5 C-52.66382813 90.8503125 -53.20265625 90.200625 -53.7578125 89.53125 C-54.16773438 89.0259375 -54.57765625 88.520625 -55 88 C-58.87137737 88.54685375 -60.51204764 90.24587644 -63.125 93.0625 C-64.38012669 94.40998507 -65.66507028 95.73152782 -67 97 C-67.66 97 -68.32 97 -69 97 C-69.25837646 97.59570801 -69.51675293 98.19141602 -69.78295898 98.80517578 C-71.10381269 101.18721688 -72.37488981 102.39928469 -74.47265625 104.1171875 C-79.70092452 108.54792332 -84.56665021 113.30751963 -89.4375 118.125 C-90.34693359 119.00542969 -91.25636719 119.88585937 -92.19335938 120.79296875 C-93.05638672 121.64761719 -93.91941406 122.50226563 -94.80859375 123.3828125 C-95.59032959 124.14996582 -96.37206543 124.91711914 -97.17749023 125.70751953 C-99.19413169 128.24419244 -99.48878669 129.85779816 -100 133 C-102.375 135.625 -102.375 135.625 -105 138 C-105.53625 138.598125 -106.0725 139.19625 -106.625 139.8125 C-108 141 -108 141 -111 141 C-111 141.66 -111 142.32 -111 143 C-111.58007812 143.31453125 -112.16015625 143.6290625 -112.7578125 143.953125 C-116.39500593 145.94577883 -119.92659681 147.88679761 -123.25 150.375 C-126 152 -126 152 -128.875 151.75 C-129.926875 151.37875 -129.926875 151.37875 -131 151 C-131.33 150.01 -131.66 149.02 -132 148 C-130.62103511 145.53253303 -129.21406075 143.26197428 -127.625 140.9375 C-126.78326563 139.6761738 -125.94209441 138.41447157 -125.1015625 137.15234375 C-124.40804687 136.11207031 -123.71453125 135.07179688 -123 134 C-122.505 133.01 -122.505 133.01 -122 132 C-121.34 132 -120.68 132 -120 132 C-119.814375 131.29875 -119.62875 130.5975 -119.4375 129.875 C-116.88616587 124.77233174 -112.89269861 121.74262133 -107.625 119.67578125 C-103.51407885 117.77536619 -101.19478899 115.59973409 -98.1875 112.3125 C-96.49260602 110.49375721 -94.78007916 108.73875063 -93 107 C-92.34 107 -91.68 107 -91 107 C-90.34 105.68 -89.68 104.36 -89 103 C-88.34 103 -87.68 103 -87 103 C-86.505 101.515 -86.505 101.515 -86 100 C-84.609375 98.6328125 -84.609375 98.6328125 -82.75 97.125 C-78.66042267 93.66115035 -74.85109136 89.97296717 -71.0625 86.1875 C-70.19286621 85.32439209 -70.19286621 85.32439209 -69.30566406 84.44384766 C-66.28338684 81.50260601 -66.28338684 81.50260601 -64 78 C-64.66 78 -65.32 78 -66 78 C-68.125 76.125 -68.125 76.125 -70 74 C-70 73.34 -70 72.68 -70 72 C-70.99 71.67 -71.98 71.34 -73 71 C-70.05801252 67.03963224 -67.08156186 63.80107186 -63 61 C-59.125 60.6875 -59.125 60.6875 -56 61 C-56 60.34 -56 59.68 -56 59 C-54.9275 58.67 -53.855 58.34 -52.75 58 C-48.72521415 56.27625333 -47.4671898 54.02290461 -45.74609375 50.109375 C-44.87920087 47.80219779 -44.87920087 47.80219779 -44.25 44.5 C-42.46735008 39.50858023 -39.10296372 36.29091881 -35 33 C-34.34 33 -33.68 33 -33 33 C-32.67 32.01 -32.34 31.02 -32 30 C-30.61032458 28.79982577 -29.21790674 27.60016995 -27.765625 26.4765625 C-25.35950516 24.46436494 -23.19746342 22.23354217 -21 20 C-17.77434971 16.74649815 -14.54357208 13.49811616 -11.3125 10.25 C-10.44560547 9.37472656 -9.57871094 8.49945313 -8.68554688 7.59765625 C-7.85732422 6.76621094 -7.02910156 5.93476563 -6.17578125 5.078125 C-5.42208252 4.31918945 -4.66838379 3.56025391 -3.8918457 2.77832031 C-2 1 -2 1 0 0 Z " fill="#3D3D42" transform="translate(267,147)"/>
<path d="M0 0 C0 26.73 0 53.46 0 81 C-3.63 80.01 -7.26 79.02 -11 78 C-14.11301337 77.66764079 -17.0771354 77.41013476 -20.1875 77.3125 C-20.94869141 77.27833984 -21.70988281 77.24417969 -22.49414062 77.20898438 C-24.32897138 77.12820566 -26.16445245 77.06240431 -28 77 C-28 77.66 -28 78.32 -28 79 C-30.97 79.99 -30.97 79.99 -34 81 C-34 81.66 -34 82.32 -34 83 C-33.40904541 83.26425781 -32.81809082 83.52851563 -32.20922852 83.80078125 C-29.91993191 85.04346276 -28.4596374 86.32451943 -26.65234375 88.1875 C-26.04712891 88.80367188 -25.44191406 89.41984375 -24.81835938 90.0546875 C-24.19767578 90.69664062 -23.57699219 91.33859375 -22.9375 92 C-21.69892558 93.27308578 -20.45812384 94.54400932 -19.21484375 95.8125 C-18.66948975 96.37582031 -18.12413574 96.93914062 -17.56225586 97.51953125 C-15.8622891 99.2143664 -15.8622891 99.2143664 -13 101 C-13.11512153 102.72985242 -13.24255677 104.45888751 -13.375 106.1875 C-13.47941406 107.63189453 -13.47941406 107.63189453 -13.5859375 109.10546875 C-14.01955081 112.13667126 -14.49290795 114.32833682 -16 117 C-20.39448491 119.57063006 -25.24692055 120.90076909 -30.3125 121.1875 C-33.65569845 119.71027278 -35.1322082 117.83058097 -37.34765625 114.98046875 C-39.72773551 112.12774964 -42.51475115 109.85153094 -45.36328125 107.48046875 C-47 106 -47 106 -48 104 C-48.06398506 101.00870744 -48.06566274 98.04249049 -48.02172852 95.05224609 C-48.01212097 94.12536484 -48.00251343 93.19848358 -47.99261475 92.24351501 C-47.95954965 89.17008037 -47.91924595 86.09678457 -47.87890625 83.0234375 C-47.85461247 80.89637751 -47.83076855 78.76931233 -47.80735779 76.64224243 C-47.74444299 71.03619497 -47.67539732 65.43023892 -47.60510254 59.82427979 C-47.53448581 54.10685398 -47.46962902 48.3893632 -47.40429688 42.671875 C-47.27518923 31.44784528 -47.13960885 20.22390367 -47 9 C-42.32696408 8.16325441 -37.86353752 7.87780912 -33.125 7.9375 C-32.09246094 7.94426758 -32.09246094 7.94426758 -31.0390625 7.95117188 C-29.35933665 7.96283664 -27.67965625 7.98076729 -26 8 C-26 7.34 -26 6.68 -26 6 C-25.23816406 5.89042969 -24.47632813 5.78085938 -23.69140625 5.66796875 C-17.18336251 4.66860623 -11.16786793 3.29167068 -5 1 C-2 0 -2 0 0 0 Z " fill="#FFDB7E" transform="translate(182,68)"/>
<path d="M0 0 C1.18851563 0.00902344 2.37703125 0.01804688 3.6015625 0.02734375 C4.51679688 0.03894531 5.43203125 0.05054688 6.375 0.0625 C6.375 0.7225 6.375 1.3825 6.375 2.0625 C7.40625 2.165625 8.4375 2.26875 9.5 2.375 C16.94869068 3.69654189 22.28595531 7.60696033 27.375 13.0625 C31.10494445 18.51042379 33.46977478 23.5627409 33.515625 30.21484375 C33.53496094 30.99150391 33.55429688 31.76816406 33.57421875 32.56835938 C33.60798612 34.18529706 33.62629562 35.80263374 33.62890625 37.41992188 C33.76666098 41.79544713 33.91876043 43.5216645 36.83984375 46.984375 C37.67644531 47.67015625 38.51304687 48.3559375 39.375 49.0625 C40.6875 51.375 40.6875 51.375 41.375 53.0625 C40.33988281 53.27648437 39.30476563 53.49046875 38.23828125 53.7109375 C34.00007104 54.92124482 31.45446049 57.47330414 28.5625 60.6875 C26.86641024 62.52359176 25.15124903 64.30097941 23.375 66.0625 C22.715 66.0625 22.055 66.0625 21.375 66.0625 C21.375 67.0525 21.375 68.0425 21.375 69.0625 C22.365 69.3925 23.355 69.7225 24.375 70.0625 C26.21999398 71.93867698 27.7433599 73.98987609 29.375 76.0625 C28.385 77.7125 27.395 79.3625 26.375 81.0625 C22.28056459 79.52128395 20.59175136 76.81088351 17.9375 73.4375 C15.29356732 70.44509822 12.98512494 68.35168132 8.97167969 67.63085938 C5.29974224 67.47032265 1.68849443 67.63769276 -1.97851562 67.84619141 C-9.12497802 68.23023027 -13.72915681 67.34591008 -19.625 63.0625 C-20.73875 62.4025 -21.8525 61.7425 -23 61.0625 C-28.62402483 56.7775287 -33.27369531 50.08693286 -34.625 43.0625 C-34.70208723 41.69449181 -34.73303609 40.32326408 -34.72265625 38.953125 C-34.71943359 38.19902344 -34.71621094 37.44492188 -34.71289062 36.66796875 C-34.70451172 35.89066406 -34.69613281 35.11335938 -34.6875 34.3125 C-34.68298828 33.51972656 -34.67847656 32.72695312 -34.67382812 31.91015625 C-34.66208565 29.96090492 -34.64415146 28.01169262 -34.625 26.0625 C-30.94729661 28.13349909 -28.63683176 30.10391867 -26.0234375 33.44140625 C-23.95065163 35.84421668 -21.54015501 37.77459203 -19.078125 39.765625 C-17.625 41.0625 -17.625 41.0625 -16.625 43.0625 C-11.4319352 43.39397222 -7.68236473 42.60833173 -2.8359375 40.71875 C-0.3416313 39.97839056 1.78688637 39.95352679 4.375 40.0625 C5.07388677 37.31494513 5.7593988 34.56518803 6.4375 31.8125 C6.63666016 31.03519531 6.83582031 30.25789063 7.04101562 29.45703125 C7.22470703 28.70292969 7.40839844 27.94882813 7.59765625 27.171875 C7.77047119 26.48061523 7.94328613 25.78935547 8.12133789 25.07714844 C8.41435337 22.74994562 8.17247112 21.26278241 7.375 19.0625 C5.14126537 16.56748608 5.14126537 16.56748608 2.375 14.0625 C1.40714854 13.12418622 0.44234382 12.18272052 -0.51953125 11.23828125 C-0.99970703 10.76712891 -1.47988281 10.29597656 -1.97460938 9.81054688 C-2.45736328 9.33681641 -2.94011719 8.86308594 -3.4375 8.375 C-3.93958984 7.88966797 -4.44167969 7.40433594 -4.95898438 6.90429688 C-6.21917273 5.66125394 -7.42691044 4.36550108 -8.625 3.0625 C-8.625 2.4025 -8.625 1.7425 -8.625 1.0625 C-5.74084117 -0.37957941 -3.20778472 -0.03144887 0 0 Z " fill="#3D3D43" transform="translate(164.625,148.9375)"/>
<path d="M0 0 C3.84659015 1.57076535 6.20270385 4.0323684 9.0625 7 C11.65493955 9.68210288 13.89183762 11.92789175 17 14 C17 14.66 17 15.32 17 16 C17.99 16.33 18.98 16.66 20 17 C21.32421875 18.3828125 21.32421875 18.3828125 22.6875 20.125 C24.81030309 22.6919906 26.95221247 24.91843041 29.5 27.0625 C33.68021941 30.61527907 37.55705228 34.43941649 41.4375 38.3125 C42.37916016 39.24751343 42.37916016 39.24751343 43.33984375 40.20141602 C43.92765625 40.79108154 44.51546875 41.38074707 45.12109375 41.98828125 C45.91664673 42.78552612 45.91664673 42.78552612 46.72827148 43.59887695 C49.36220297 46.500803 49.19366271 49.00503801 49.25 52.8125 C49.27578125 53.85019531 49.3015625 54.88789063 49.328125 55.95703125 C48.88417781 60.07411296 47.30909599 62.52316469 44.59765625 65.58203125 C39.92262764 69.32919159 35.7074535 69.68683707 29.8046875 69.421875 C22.65238114 68.34604062 18.40477666 62.43957246 13.5703125 57.53515625 C8.05488607 51.95300017 8.05488607 51.95300017 2.1875 46.75 C-0.9579663 44.13977622 -3.38209615 41.14148461 -6 38 C-7.14846224 36.97914468 -8.31621922 35.97968065 -9.5 35 C-11.79926074 33.096311 -13.50354059 31.39316903 -15.4375 29.0625 C-18.12140661 25.8549043 -20.9981992 23.34372302 -24.23046875 20.7109375 C-26.07867287 18.9239322 -26.99940744 17.3501097 -28 15 C-26.75 13.4375 -26.75 13.4375 -25 12 C-23.125 11.9375 -23.125 11.9375 -21 13 C-19.16005444 14.90302941 -17.61564712 16.89068293 -16 19 C-13.12018877 17.82674357 -11.62061333 16.62061333 -9.375 14.375 C-8.59125 13.59125 -7.8075 12.8075 -7 12 C-6.34 12 -5.68 12 -5 12 C-4.67 11.01 -4.34 10.02 -4 9 C-3.01 8.34 -2.02 7.68 -1 7 C-0.26393501 3.43230448 -0.26393501 3.43230448 0 0 Z " fill="#3D3D42" transform="translate(235,230)"/>
<path d="M0 0 C14.66123073 -0.45922648 25.27622399 0.18285884 37 10 C39.2549317 12.18718697 41.22233934 14.41057522 43 17 C43.72960937 18.01191406 44.45921875 19.02382812 45.2109375 20.06640625 C47.87334197 24.8024987 46.99801514 29.24253485 46.25 34.4375 C46.07984375 35.82098633 46.07984375 35.82098633 45.90625 37.23242188 C45.62527983 39.49189034 45.32283743 41.74619918 45 44 C44.67 44 44.34 44 44 44 C43.94392578 42.62328125 43.94392578 42.62328125 43.88671875 41.21875 C43.50938073 34.17510689 42.92114727 28.426524 40 22 C39.690625 21.05125 39.38125 20.1025 39.0625 19.125 C37.73471096 16.46942191 36.61132449 16.28889227 34 15 C32.93368061 14.04773965 31.89226949 13.06698972 30.875 12.0625 C26.76530877 8.40048756 22.28215303 7.21160049 17 6 C17 5.34 17 4.68 17 4 C12.05 4.33 7.1 4.66 2 5 C6.38340351 10.22277866 10.88235334 14.82616213 16.08203125 19.23828125 C18 21 18 21 20 24 C19.78836548 28.08152292 18.85461028 32.01013307 18 36 C17.89558594 36.80050781 17.79117188 37.60101563 17.68359375 38.42578125 C17.16431462 40.90990035 16.73313113 42.12244128 15 44 C8.35885189 46.98173997 1.28940964 48.65146898 -6 48 C-7.75 46.6796875 -7.75 46.6796875 -9 44.875 C-11.48487945 41.58618896 -14.09863491 39.05580678 -17.2890625 36.45703125 C-19.29366366 34.74991656 -21.13819089 32.86180911 -23 31 C-23 36.94 -23 42.88 -23 49 C-24.65 49 -26.3 49 -28 49 C-30.58979014 40.23615016 -28.92581746 30.73495775 -27 22 C-24 22 -24 22 -22.421875 23.5390625 C-21.87015625 24.22742188 -21.3184375 24.91578125 -20.75 25.625 C-17.93358364 28.99994618 -15.02366184 31.78477379 -11.62109375 34.55078125 C-9.97562385 36.02179169 -8.7515825 37.54499607 -7.4375 39.3125 C-5.23603741 42.1143667 -5.23603741 42.1143667 -2.375 43.125 C2.90300336 42.92951839 7.55147338 41.94614119 12 39 C13.63848602 35.7008112 13.92686098 32.65132496 14 29 C14.07605469 28.13632813 14.15210938 27.27265625 14.23046875 26.3828125 C14.22141591 23.94465953 14.22141591 23.94465953 12.6015625 22.33203125 C11.62316406 21.57986328 11.62316406 21.57986328 10.625 20.8125 C5.38272027 16.56074015 0.73034296 11.80596124 -4 7 C-4.99891127 5.99891245 -5.99838057 4.99837794 -7 4 C-4 2 -4 2 0 2 C0 1.34 0 0.68 0 0 Z " fill="#F3F0EA" transform="translate(154,145)"/>
<path d="M0 0 C0.66 0 1.32 0 2 0 C2 49.5 2 99 2 150 C1.34 150 0.68 150 0 150 C-1.14233747 134.20463438 -1.05752138 118.44693792 -0.89946485 102.62080407 C-0.86455944 99.00010098 -0.83634752 95.37934512 -0.80735779 91.7585907 C-0.75173811 84.93452096 -0.69029335 78.11051726 -0.62663645 71.28651828 C-0.55432992 63.50391818 -0.48869884 55.72126597 -0.42356598 47.93860304 C-0.28968689 31.95900051 -0.14762785 15.9794818 0 0 Z " fill="#FFE1A6" transform="translate(202,42)"/>
<path d="M0 0 C3.96 0 7.92 0 12 0 C12 3.63 12 7.26 12 11 C8.04 11 4.08 11 0 11 C0 7.37 0 3.74 0 0 Z " fill="#3E923E" transform="translate(61,293)"/>
<path d="M0 0 C3.63 0 7.26 0 11 0 C11 3.63 11 7.26 11 11 C7.37 11 3.74 11 0 11 C0 7.37 0 3.74 0 0 Z " fill="#2A872A" transform="translate(7,293)"/>
<path d="M0 0 C3.63 0 7.26 0 11 0 C11 3.63 11 7.26 11 11 C7.37 11 3.74 11 0 11 C0 7.37 0 3.74 0 0 Z " fill="#0B770B" transform="translate(289,11)"/>
<path d="M0 0 C3.96 0 7.92 0 12 0 C12 3.3 12 6.6 12 10 C8.04 10 4.08 10 0 10 C0 6.7 0 3.4 0 0 Z " fill="#2E8B2E" transform="translate(43,294)"/>
<path d="M0 0 C3.63 0 7.26 0 11 0 C11 3.3 11 6.6 11 10 C7.37 10 3.74 10 0 10 C0 6.7 0 3.4 0 0 Z " fill="#268626" transform="translate(25,294)"/>
<path d="M0 0 C3.3 0 6.6 0 10 0 C10 3.63 10 7.26 10 11 C6.7 11 3.4 11 0 11 C0 7.37 0 3.74 0 0 Z " fill="#1E811E" transform="translate(7,238)"/>
<path d="M0 0 C3.3 0 6.6 0 10 0 C10 3.63 10 7.26 10 11 C6.7 11 3.4 11 0 11 C0 7.37 0 3.74 0 0 Z " fill="#0F7A0F" transform="translate(290,66)"/>
<path d="M0 0 C3.3 0 6.6 0 10 0 C10 3.63 10 7.26 10 11 C6.7 11 3.4 11 0 11 C0 7.37 0 3.74 0 0 Z " fill="#1C801C" transform="translate(290,29)"/>
<path d="M0 0 C3.63 0 7.26 0 11 0 C11 3.3 11 6.6 11 10 C7.37 10 3.74 10 0 10 C0 6.7 0 3.4 0 0 Z " fill="#278527" transform="translate(271,11)"/>
<path d="M0 0 C2.97 0 5.94 0 9 0 C9 3.3 9 6.6 9 10 C6.03 10 3.06 10 0 10 C0 6.7 0 3.4 0 0 Z " fill="#0B770B" transform="translate(7,275)"/>
<path d="M0 0 C2.97 0 5.94 0 9 0 C9 3.3 9 6.6 9 10 C6.03 10 3.06 10 0 10 C0 6.7 0 3.4 0 0 Z " fill="#0B770B" transform="translate(7,257)"/>
<path d="M0 0 C2.97 0 5.94 0 9 0 C9 3.3 9 6.6 9 10 C6.03 10 3.06 10 0 10 C0 6.7 0 3.4 0 0 Z " fill="#0A760A" transform="translate(291,48)"/>
<path d="M0 0 C3.3 0 6.6 0 10 0 C10 2.97 10 5.94 10 9 C6.7 9 3.4 9 0 9 C0 6.03 0 3.06 0 0 Z " fill="#167D16" transform="translate(235,11)"/>
<path d="M0 0 C3.3 0 6.6 0 10 0 C10 2.97 10 5.94 10 9 C6.7 9 3.4 9 0 9 C0 6.03 0 3.06 0 0 Z " fill="#117B11" transform="translate(253,11)"/>
<path d="M0 0 C2.97 0 5.94 0 9 0 C9 1.98 9 3.96 9 6 C6.03 6 3.06 6 0 6 C0 4.02 0 2.04 0 0 Z " fill="#107B10" transform="translate(7,295)"/>
<path d="M0 0 C3.3 0 6.6 0 10 0 C10 0.66 10 1.32 10 2 C7.36 2 4.72 2 2 2 C2 4.31 2 6.62 2 9 C4.64 9 7.28 9 10 9 C10 9.66 10 10.32 10 11 C6.7 11 3.4 11 0 11 C0 7.37 0 3.74 0 0 Z " fill="#2B882B" transform="translate(290,66)"/>
<path d="M0 0 C3.63 0 7.26 0 11 0 C11 0.99 11 1.98 11 3 C8.03 3 5.06 3 2 3 C1.67 5.31 1.34 7.62 1 10 C4.3 10 7.6 10 11 10 C11 10.33 11 10.66 11 11 C7.37 11 3.74 11 0 11 C0 7.37 0 3.74 0 0 Z " fill="#3E933E" transform="translate(289,11)"/>
<path d="M0 0 C0 6.27 0 12.54 0 19 C-0.66 19 -1.32 19 -2 19 C-2.33 13.06 -2.66 7.12 -3 1 C-1 0 -1 0 0 0 Z " fill="#FFEDCC" transform="translate(204,173)"/>
<path d="M0 0 C2.31 0 4.62 0 7 0 C7 1.65 7 3.3 7 5 C4.69 5 2.38 5 0 5 C0 3.35 0 1.7 0 0 Z " fill="#0F7A0F" transform="translate(27,296)"/>
<path d="M0 0 C2.31 0 4.62 0 7 0 C7 1.32 7 2.64 7 4 C4.69 4 2.38 4 0 4 C0 2.68 0 1.36 0 0 Z " fill="#107B10" transform="translate(273,14)"/>
<path d="M0 0 C-1.5830577 4.2742558 -4.50568404 6.26531794 -8 9 C-8 6 -8 6 -6.7578125 4.39453125 C-5.94957031 3.61142578 -5.94957031 3.61142578 -5.125 2.8125 C-4.59132812 2.28269531 -4.05765625 1.75289062 -3.5078125 1.20703125 C-2 0 -2 0 0 0 Z " fill="#444449" transform="translate(199,202)"/>
<path d="M0 0 C1.98 0 3.96 0 6 0 C6 1.32 6 2.64 6 4 C4.02 4 2.04 4 0 4 C0 2.68 0 1.36 0 0 Z " fill="#107B10" transform="translate(255,14)"/>
<path d="M0 0 C1.98 0 3.96 0 6 0 C6 1.32 6 2.64 6 4 C4.02 4 2.04 4 0 4 C0 2.68 0 1.36 0 0 Z " fill="#107B10" transform="translate(237,14)"/>
<path d="M0 0 C0.33 0.66 0.66 1.32 1 2 C0.67 2.99 0.34 3.98 0 5 C0.99 5.99 1.98 6.98 3 8 C1.68 8 0.36 8 -1 8 C-1 7.34 -1 6.68 -1 6 C-1.99 5.67 -2.98 5.34 -4 5 C-2.68 3.35 -1.36 1.7 0 0 Z " fill="#5E5E62" transform="translate(198,213)"/>
<path d="M0 0 C3 1 3 1 4 3 C6.02463255 3.65213292 6.02463255 3.65213292 8 4 C7.01 5.485 7.01 5.485 6 7 C5.34 7 4.68 7 4 7 C2.02 3.535 2.02 3.535 0 0 Z " fill="#45454A" transform="translate(214,235)"/>
<path d="M0 0 C0.33 0 0.66 0 1 0 C1.375 2.1875 1.375 2.1875 1 5 C-0.83961648 6.99022836 -2.79186148 8.38989899 -5 10 C-4.67 8.68 -4.34 7.36 -4 6 C-3.34 6 -2.68 6 -2 6 C-2 5.34 -2 4.68 -2 4 C-1.34 4 -0.68 4 0 4 C0 2.68 0 1.36 0 0 Z " fill="#4B4B50" transform="translate(228,228)"/>
</svg>
